<?xml version="1.0" encoding="UTF-8" standalone="no"?>
<!DOCTYPE svg PUBLIC "-//W3C//DTD SVG 1.1//EN"
 "http://www.w3.org/Graphics/SVG/1.1/DTD/svg11.dtd">
<!-- Generated by graphviz version 2.43.0 (0)
 -->
<!-- Title: include/GameManager.hpp Pages: 1 -->
<svg width="230pt" height="247pt"
 viewBox="0.00 0.00 229.50 247.00" xmlns="http://www.w3.org/2000/svg" xmlns:xlink="http://www.w3.org/1999/xlink">
<g id="graph0" class="graph" transform="scale(1 1) rotate(0) translate(4 243)">
<title>include/GameManager.hpp</title>
<!-- Node1 -->
<g id="Node000001" class="node">
<title>Node1</title>
<g id="a_Node000001"><a xlink:title=" ">
<polygon fill="#999999" stroke="#666666" points="147,-239 0,-239 0,-220 147,-220 147,-239"/>
<text text-anchor="middle" x="73.5" y="-227" font-family="Helvetica,sans-Serif" font-size="10.00">include/GameManager.hpp</text>
</a>
</g>
</g>
<!-- Node2 -->
<g id="Node000002" class="node">
<title>Node2</title>
<g id="a_Node000002"><a xlink:title=" ">
<polygon fill="#e0e0e0" stroke="#999999" points="62.5,-184 2.5,-184 2.5,-165 62.5,-165 62.5,-184"/>
<text text-anchor="middle" x="32.5" y="-172" font-family="Helvetica,sans-Serif" font-size="10.00">iostream</text>
</a>
</g>
</g>
<!-- Node1&#45;&gt;Node2 -->
<g id="edge1_Node000001_Node000002" class="edge">
<title>Node1&#45;&gt;Node2</title>
<g id="a_edge1_Node000001_Node000002"><a xlink:title=" ">
<path fill="none" stroke="#63b8ff" d="M66.73,-219.75C60.94,-212.26 52.44,-201.28 45.36,-192.13"/>
<polygon fill="#63b8ff" stroke="#63b8ff" points="48.03,-189.86 39.14,-184.09 42.49,-194.14 48.03,-189.86"/>
</a>
</g>
</g>
<!-- Node3 -->
<g id="Node000003" class="node">
<title>Node3</title>
<g id="a_Node000003"><a xlink:href="Player_8hpp." target="_top" xlink:title=" ">
<polygon fill="white" stroke="#666666" points="148.5,-184 80.5,-184 80.5,-165 148.5,-165 148.5,-184"/>
<text text-anchor="middle" x="114.5" y="-172" font-family="Helvetica,sans-Serif" font-size="10.00">Player.hpp</text>
</a>
</g>
</g>
<!-- Node1&#45;&gt;Node3 -->
<g id="edge2_Node000001_Node000003" class="edge">
<title>Node1&#45;&gt;Node3</title>
<g id="a_edge2_Node000001_Node000003"><a xlink:title=" ">
<path fill="none" stroke="#63b8ff" d="M80.27,-219.75C86.06,-212.26 94.56,-201.28 101.64,-192.13"/>
<polygon fill="#63b8ff" stroke="#63b8ff" points="104.51,-194.14 107.86,-184.09 98.97,-189.86 104.51,-194.14"/>
</a>
</g>
</g>
<!-- Node4 -->
<g id="Node000004" class="node">
<title>Node4</title>
<g id="a_Node000004"><a xlink:href="Hand_8hpp." target="_top" xlink:title=" ">
<polygon fill="white" stroke="#666666" points="146,-129 83,-129 83,-110 146,-110 146,-129"/>
<text text-anchor="middle" x="114.5" y="-117" font-family="Helvetica,sans-Serif" font-size="10.00">Hand.hpp</text>
</a>
</g>
</g>
<!-- Node3&#45;&gt;Node4 -->
<g id="edge3_Node000003_Node000004" class="edge">
<title>Node3&#45;&gt;Node4</title>
<g id="a_edge3_Node000003_Node000004"><a xlink:title=" ">
<path fill="none" stroke="#63b8ff" d="M114.5,-164.75C114.5,-157.8 114.5,-147.85 114.5,-139.13"/>
<polygon fill="#63b8ff" stroke="#63b8ff" points="118,-139.09 114.5,-129.09 111,-139.09 118,-139.09"/>
</a>
</g>
</g>
<!-- Node5 -->
<g id="Node000005" class="node">
<title>Node5</title>
<g id="a_Node000005"><a xlink:title=" ">
<polygon fill="#e0e0e0" stroke="#999999" points="67,-74 20,-74 20,-55 67,-55 67,-74"/>
<text text-anchor="middle" x="43.5" y="-62" font-family="Helvetica,sans-Serif" font-size="10.00">vector</text>
</a>
</g>
</g>
<!-- Node4&#45;&gt;Node5 -->
<g id="edge4_Node000004_Node000005" class="edge">
<title>Node4&#45;&gt;Node5</title>
<g id="a_edge4_Node000004_Node000005"><a xlink:title=" ">
<path fill="none" stroke="#63b8ff" d="M103.09,-109.98C92.39,-102 76.16,-89.88 63.34,-80.31"/>
<polygon fill="#63b8ff" stroke="#63b8ff" points="65.22,-77.35 55.11,-74.17 61.03,-82.96 65.22,-77.35"/>
</a>
</g>
</g>
<!-- Node6 -->
<g id="Node000006" class="node">
<title>Node6</title>
<g id="a_Node000006"><a xlink:title=" ">
<polygon fill="#e0e0e0" stroke="#999999" points="143.5,-74 85.5,-74 85.5,-55 143.5,-55 143.5,-74"/>
<text text-anchor="middle" x="114.5" y="-62" font-family="Helvetica,sans-Serif" font-size="10.00">memory</text>
</a>
</g>
</g>
<!-- Node4&#45;&gt;Node6 -->
<g id="edge5_Node000004_Node000006" class="edge">
<title>Node4&#45;&gt;Node6</title>
<g id="a_edge5_Node000004_Node000006"><a xlink:title=" ">
<path fill="none" stroke="#63b8ff" d="M114.5,-109.75C114.5,-102.8 114.5,-92.85 114.5,-84.13"/>
<polygon fill="#63b8ff" stroke="#63b8ff" points="118,-84.09 114.5,-74.09 111,-84.09 118,-84.09"/>
</a>
</g>
</g>
<!-- Node7 -->
<g id="Node000007" class="node">
<title>Node7</title>
<g id="a_Node000007"><a xlink:href="Card_8hpp." target="_top" xlink:title=" ">
<polygon fill="white" stroke="#666666" points="221.5,-74 161.5,-74 161.5,-55 221.5,-55 221.5,-74"/>
<text text-anchor="middle" x="191.5" y="-62" font-family="Helvetica,sans-Serif" font-size="10.00">Card.hpp</text>
</a>
</g>
</g>
<!-- Node4&#45;&gt;Node7 -->
<g id="edge6_Node000004_Node000007" class="edge">
<title>Node4&#45;&gt;Node7</title>
<g id="a_edge6_Node000004_Node000007"><a xlink:title=" ">
<path fill="none" stroke="#63b8ff" d="M126.87,-109.98C138.59,-101.92 156.42,-89.65 170.39,-80.03"/>
<polygon fill="#63b8ff" stroke="#63b8ff" points="172.65,-82.72 178.9,-74.17 168.68,-76.96 172.65,-82.72"/>
</a>
</g>
</g>
<!-- Node8 -->
<g id="Node000008" class="node">
<title>Node8</title>
<g id="a_Node000008"><a xlink:title=" ">
<polygon fill="#e0e0e0" stroke="#999999" points="213.5,-19 169.5,-19 169.5,0 213.5,0 213.5,-19"/>
<text text-anchor="middle" x="191.5" y="-7" font-family="Helvetica,sans-Serif" font-size="10.00">string</text>
</a>
</g>
</g>
<!-- Node7&#45;&gt;Node8 -->
<g id="edge7_Node000007_Node000008" class="edge">
<title>Node7&#45;&gt;Node8</title>
<g id="a_edge7_Node000007_Node000008"><a xlink:title=" ">
<path fill="none" stroke="#63b8ff" d="M191.5,-54.75C191.5,-47.8 191.5,-37.85 191.5,-29.13"/>
<polygon fill="#63b8ff" stroke="#63b8ff" points="195,-29.09 191.5,-19.09 188,-29.09 195,-29.09"/>
</a>
</g>
</g>
</g>
</svg>
