<?xml version="1.0" encoding="UTF-8" standalone="no"?>
<!DOCTYPE svg PUBLIC "-//W3C//DTD SVG 1.1//EN"
 "http://www.w3.org/Graphics/SVG/1.1/DTD/svg11.dtd">
<!-- Generated by graphviz version 2.43.0 (0)
 -->
<!-- Title: Player Pages: 1 -->
<svg width="123pt" height="228pt"
 viewBox="0.00 0.00 122.50 228.00" xmlns="http://www.w3.org/2000/svg" xmlns:xlink="http://www.w3.org/1999/xlink">
<g id="graph0" class="graph" transform="scale(1 1) rotate(0) translate(4 224)">
<title>Player</title>
<!-- Node1 -->
<g id="Node000001" class="node">
<title>Node1</title>
<g id="a_Node000001"><a xlink:title=" ">
<polygon fill="#999999" stroke="transparent" points="101,-79 0,-79 0,0 101,0 101,-79"/>
<text text-anchor="start" x="35.5" y="-66.5" font-family="Helvetica,sans-Serif" font-size="10.00">Player</text>
<text text-anchor="start" x="7" y="-51.5" font-family="Helvetica,sans-Serif" font-size="10.00">&#45;</text>
<text text-anchor="start" x="17.5" y="-51.5" font-family="Helvetica,sans-Serif" font-size="10.00">name</text>
<text text-anchor="start" x="4.5" y="-36.5" font-family="Helvetica,sans-Serif" font-size="10.00">+</text>
<text text-anchor="start" x="17.5" y="-36.5" font-family="Helvetica,sans-Serif" font-size="10.00">Player()</text>
<text text-anchor="start" x="4.5" y="-21.5" font-family="Helvetica,sans-Serif" font-size="10.00">+</text>
<text text-anchor="start" x="17.5" y="-21.5" font-family="Helvetica,sans-Serif" font-size="10.00">~Player()</text>
<text text-anchor="start" x="4.5" y="-6.5" font-family="Helvetica,sans-Serif" font-size="10.00">+</text>
<text text-anchor="start" x="17.5" y="-6.5" font-family="Helvetica,sans-Serif" font-size="10.00">getPlayerHand()</text>
<polygon fill="#666666" stroke="#666666" points="0.5,-61.5 0.5,-61.5 101.5,-61.5 101.5,-61.5 0.5,-61.5"/>
<polygon fill="#666666" stroke="#666666" points="0.5,-46.5 0.5,-46.5 15.5,-46.5 15.5,-46.5 0.5,-46.5"/>
<polygon fill="#666666" stroke="#666666" points="15.5,-46.5 15.5,-46.5 101.5,-46.5 101.5,-46.5 15.5,-46.5"/>
<polygon fill="none" stroke="#666666" points="0,0 0,-79 101,-79 101,0 0,0"/>
</a>
</g>
</g>
<!-- Node2 -->
<g id="Node000002" class="node">
<title>Node2</title>
<g id="a_Node000002"><a xlink:href="classHand." target="_top" xlink:title=" ">
<polygon fill="white" stroke="transparent" points="87,-220 14,-220 14,-126 87,-126 87,-220"/>
<text text-anchor="start" x="38" y="-208" font-family="Helvetica,sans-Serif" font-size="10.00">Hand</text>
<text text-anchor="start" x="21" y="-193" font-family="Helvetica,sans-Serif" font-size="10.00">&#45;</text>
<text text-anchor="start" x="31.5" y="-193" font-family="Helvetica,sans-Serif" font-size="10.00">cards</text>
<text text-anchor="start" x="18.5" y="-178" font-family="Helvetica,sans-Serif" font-size="10.00">+</text>
<text text-anchor="start" x="31.5" y="-178" font-family="Helvetica,sans-Serif" font-size="10.00">Hand()</text>
<text text-anchor="start" x="18.5" y="-163" font-family="Helvetica,sans-Serif" font-size="10.00">+</text>
<text text-anchor="start" x="31.5" y="-163" font-family="Helvetica,sans-Serif" font-size="10.00">~Hand()</text>
<text text-anchor="start" x="18.5" y="-148" font-family="Helvetica,sans-Serif" font-size="10.00">+</text>
<text text-anchor="start" x="31.5" y="-148" font-family="Helvetica,sans-Serif" font-size="10.00">fillHand()</text>
<text text-anchor="start" x="18.5" y="-133" font-family="Helvetica,sans-Serif" font-size="10.00">+</text>
<text text-anchor="start" x="31.5" y="-133" font-family="Helvetica,sans-Serif" font-size="10.00">getCards()</text>
<polygon fill="#666666" stroke="#666666" points="14.5,-203 14.5,-203 87.5,-203 87.5,-203 14.5,-203"/>
<polygon fill="#666666" stroke="#666666" points="14.5,-188 14.5,-188 29.5,-188 29.5,-188 14.5,-188"/>
<polygon fill="#666666" stroke="#666666" points="29.5,-188 29.5,-188 87.5,-188 87.5,-188 29.5,-188"/>
<polygon fill="none" stroke="#666666" points="14,-126 14,-220 87,-220 87,-126 14,-126"/>
</a>
</g>
</g>
<!-- Node2&#45;&gt;Node1 -->
<g id="edge1_Node000001_Node000002" class="edge">
<title>Node2&#45;&gt;Node1</title>
<g id="a_edge1_Node000001_Node000002"><a xlink:title=" ">
<path fill="none" stroke="#63b8ff" d="M50.5,-125.64C50.5,-114.45 50.5,-102.44 50.5,-91.07"/>
<polygon fill="none" stroke="#63b8ff" points="50.5,-91.06 46.5,-85.06 50.5,-79.06 54.5,-85.06 50.5,-91.06"/>
</a>
</g>
<text text-anchor="middle" x="82.5" y="-100" font-family="Helvetica,sans-Serif" font-size="10.00" fill="grey"> &#45;playerHand</text>
</g>
</g>
</svg>
