<?xml version="1.0" encoding="UTF-8" standalone="no"?>
<!DOCTYPE svg PUBLIC "-//W3C//DTD SVG 1.1//EN"
 "http://www.w3.org/Graphics/SVG/1.1/DTD/svg11.dtd">
<!-- Generated by graphviz version 2.43.0 (0)
 -->
<!-- Title: src/GameManager.cpp Pages: 1 -->
<svg width="227pt" height="302pt"
 viewBox="0.00 0.00 227.00 302.00" xmlns="http://www.w3.org/2000/svg" xmlns:xlink="http://www.w3.org/1999/xlink">
<g id="graph0" class="graph" transform="scale(1 1) rotate(0) translate(4 298)">
<title>src/GameManager.cpp</title>
<!-- Node1 -->
<g id="Node000001" class="node">
<title>Node1</title>
<g id="a_Node000001"><a xlink:title=" ">
<polygon fill="#999999" stroke="#666666" points="133.5,-294 8.5,-294 8.5,-275 133.5,-275 133.5,-294"/>
<text text-anchor="middle" x="71" y="-282" font-family="Helvetica,sans-Serif" font-size="10.00">src/GameManager.cpp</text>
</a>
</g>
</g>
<!-- Node2 -->
<g id="Node000002" class="node">
<title>Node2</title>
<g id="a_Node000002"><a xlink:href="GameManager_8hpp." target="_top" xlink:title=" ">
<polygon fill="white" stroke="#666666" points="125.5,-239 16.5,-239 16.5,-220 125.5,-220 125.5,-239"/>
<text text-anchor="middle" x="71" y="-227" font-family="Helvetica,sans-Serif" font-size="10.00">GameManager.hpp</text>
</a>
</g>
</g>
<!-- Node1&#45;&gt;Node2 -->
<g id="edge1_Node000001_Node000002" class="edge">
<title>Node1&#45;&gt;Node2</title>
<g id="a_edge1_Node000001_Node000002"><a xlink:title=" ">
<path fill="none" stroke="#63b8ff" d="M71,-274.75C71,-267.8 71,-257.85 71,-249.13"/>
<polygon fill="#63b8ff" stroke="#63b8ff" points="74.5,-249.09 71,-239.09 67.5,-249.09 74.5,-249.09"/>
</a>
</g>
</g>
<!-- Node3 -->
<g id="Node000003" class="node">
<title>Node3</title>
<g id="a_Node000003"><a xlink:title=" ">
<polygon fill="#e0e0e0" stroke="#999999" points="60,-184 0,-184 0,-165 60,-165 60,-184"/>
<text text-anchor="middle" x="30" y="-172" font-family="Helvetica,sans-Serif" font-size="10.00">iostream</text>
</a>
</g>
</g>
<!-- Node2&#45;&gt;Node3 -->
<g id="edge2_Node000002_Node000003" class="edge">
<title>Node2&#45;&gt;Node3</title>
<g id="a_edge2_Node000002_Node000003"><a xlink:title=" ">
<path fill="none" stroke="#63b8ff" d="M64.23,-219.75C58.44,-212.26 49.94,-201.28 42.86,-192.13"/>
<polygon fill="#63b8ff" stroke="#63b8ff" points="45.53,-189.86 36.64,-184.09 39.99,-194.14 45.53,-189.86"/>
</a>
</g>
</g>
<!-- Node4 -->
<g id="Node000004" class="node">
<title>Node4</title>
<g id="a_Node000004"><a xlink:href="Player_8hpp." target="_top" xlink:title=" ">
<polygon fill="white" stroke="#666666" points="146,-184 78,-184 78,-165 146,-165 146,-184"/>
<text text-anchor="middle" x="112" y="-172" font-family="Helvetica,sans-Serif" font-size="10.00">Player.hpp</text>
</a>
</g>
</g>
<!-- Node2&#45;&gt;Node4 -->
<g id="edge3_Node000002_Node000004" class="edge">
<title>Node2&#45;&gt;Node4</title>
<g id="a_edge3_Node000002_Node000004"><a xlink:title=" ">
<path fill="none" stroke="#63b8ff" d="M77.77,-219.75C83.56,-212.26 92.06,-201.28 99.14,-192.13"/>
<polygon fill="#63b8ff" stroke="#63b8ff" points="102.01,-194.14 105.36,-184.09 96.47,-189.86 102.01,-194.14"/>
</a>
</g>
</g>
<!-- Node5 -->
<g id="Node000005" class="node">
<title>Node5</title>
<g id="a_Node000005"><a xlink:href="Hand_8hpp." target="_top" xlink:title=" ">
<polygon fill="white" stroke="#666666" points="143.5,-129 80.5,-129 80.5,-110 143.5,-110 143.5,-129"/>
<text text-anchor="middle" x="112" y="-117" font-family="Helvetica,sans-Serif" font-size="10.00">Hand.hpp</text>
</a>
</g>
</g>
<!-- Node4&#45;&gt;Node5 -->
<g id="edge4_Node000004_Node000005" class="edge">
<title>Node4&#45;&gt;Node5</title>
<g id="a_edge4_Node000004_Node000005"><a xlink:title=" ">
<path fill="none" stroke="#63b8ff" d="M112,-164.75C112,-157.8 112,-147.85 112,-139.13"/>
<polygon fill="#63b8ff" stroke="#63b8ff" points="115.5,-139.09 112,-129.09 108.5,-139.09 115.5,-139.09"/>
</a>
</g>
</g>
<!-- Node6 -->
<g id="Node000006" class="node">
<title>Node6</title>
<g id="a_Node000006"><a xlink:title=" ">
<polygon fill="#e0e0e0" stroke="#999999" points="64.5,-74 17.5,-74 17.5,-55 64.5,-55 64.5,-74"/>
<text text-anchor="middle" x="41" y="-62" font-family="Helvetica,sans-Serif" font-size="10.00">vector</text>
</a>
</g>
</g>
<!-- Node5&#45;&gt;Node6 -->
<g id="edge5_Node000005_Node000006" class="edge">
<title>Node5&#45;&gt;Node6</title>
<g id="a_edge5_Node000005_Node000006"><a xlink:title=" ">
<path fill="none" stroke="#63b8ff" d="M100.59,-109.98C89.89,-102 73.66,-89.88 60.84,-80.31"/>
<polygon fill="#63b8ff" stroke="#63b8ff" points="62.72,-77.35 52.61,-74.17 58.53,-82.96 62.72,-77.35"/>
</a>
</g>
</g>
<!-- Node7 -->
<g id="Node000007" class="node">
<title>Node7</title>
<g id="a_Node000007"><a xlink:title=" ">
<polygon fill="#e0e0e0" stroke="#999999" points="141,-74 83,-74 83,-55 141,-55 141,-74"/>
<text text-anchor="middle" x="112" y="-62" font-family="Helvetica,sans-Serif" font-size="10.00">memory</text>
</a>
</g>
</g>
<!-- Node5&#45;&gt;Node7 -->
<g id="edge6_Node000005_Node000007" class="edge">
<title>Node5&#45;&gt;Node7</title>
<g id="a_edge6_Node000005_Node000007"><a xlink:title=" ">
<path fill="none" stroke="#63b8ff" d="M112,-109.75C112,-102.8 112,-92.85 112,-84.13"/>
<polygon fill="#63b8ff" stroke="#63b8ff" points="115.5,-84.09 112,-74.09 108.5,-84.09 115.5,-84.09"/>
</a>
</g>
</g>
<!-- Node8 -->
<g id="Node000008" class="node">
<title>Node8</title>
<g id="a_Node000008"><a xlink:href="Card_8hpp." target="_top" xlink:title=" ">
<polygon fill="white" stroke="#666666" points="219,-74 159,-74 159,-55 219,-55 219,-74"/>
<text text-anchor="middle" x="189" y="-62" font-family="Helvetica,sans-Serif" font-size="10.00">Card.hpp</text>
</a>
</g>
</g>
<!-- Node5&#45;&gt;Node8 -->
<g id="edge7_Node000005_Node000008" class="edge">
<title>Node5&#45;&gt;Node8</title>
<g id="a_edge7_Node000005_Node000008"><a xlink:title=" ">
<path fill="none" stroke="#63b8ff" d="M124.37,-109.98C136.09,-101.92 153.92,-89.65 167.89,-80.03"/>
<polygon fill="#63b8ff" stroke="#63b8ff" points="170.15,-82.72 176.4,-74.17 166.18,-76.96 170.15,-82.72"/>
</a>
</g>
</g>
<!-- Node9 -->
<g id="Node000009" class="node">
<title>Node9</title>
<g id="a_Node000009"><a xlink:title=" ">
<polygon fill="#e0e0e0" stroke="#999999" points="211,-19 167,-19 167,0 211,0 211,-19"/>
<text text-anchor="middle" x="189" y="-7" font-family="Helvetica,sans-Serif" font-size="10.00">string</text>
</a>
</g>
</g>
<!-- Node8&#45;&gt;Node9 -->
<g id="edge8_Node000008_Node000009" class="edge">
<title>Node8&#45;&gt;Node9</title>
<g id="a_edge8_Node000008_Node000009"><a xlink:title=" ">
<path fill="none" stroke="#63b8ff" d="M189,-54.75C189,-47.8 189,-37.85 189,-29.13"/>
<polygon fill="#63b8ff" stroke="#63b8ff" points="192.5,-29.09 189,-19.09 185.5,-29.09 192.5,-29.09"/>
</a>
</g>
</g>
</g>
</svg>
