<?xml version="1.0" encoding="UTF-8" standalone="no"?>
<!DOCTYPE svg PUBLIC "-//W3C//DTD SVG 1.1//EN"
 "http://www.w3.org/Graphics/SVG/1.1/DTD/svg11.dtd">
<!-- Generated by graphviz version 2.43.0 (0)
 -->
<!-- Title: include/Player.hpp Pages: 1 -->
<svg width="307pt" height="137pt"
 viewBox="0.00 0.00 306.50 137.00" xmlns="http://www.w3.org/2000/svg" xmlns:xlink="http://www.w3.org/1999/xlink">
<g id="graph0" class="graph" transform="scale(1 1) rotate(0) translate(4 133)">
<title>include/Player.hpp</title>
<!-- Node1 -->
<g id="Node000001" class="node">
<title>Node1</title>
<g id="a_Node000001"><a xlink:title=" ">
<polygon fill="#999999" stroke="#666666" points="242.5,-129 136.5,-129 136.5,-110 242.5,-110 242.5,-129"/>
<text text-anchor="middle" x="189.5" y="-117" font-family="Helvetica,sans-Serif" font-size="10.00">include/Player.hpp</text>
</a>
</g>
</g>
<!-- Node2 -->
<g id="Node000002" class="node">
<title>Node2</title>
<g id="a_Node000002"><a xlink:href="GameManager_8hpp." target="_top" xlink:title=" ">
<polygon fill="white" stroke="#666666" points="196,-74 49,-74 49,-55 196,-55 196,-74"/>
<text text-anchor="middle" x="122.5" y="-62" font-family="Helvetica,sans-Serif" font-size="10.00">include/GameManager.hpp</text>
</a>
</g>
</g>
<!-- Node1&#45;&gt;Node2 -->
<g id="edge1_Node000001_Node000002" class="edge">
<title>Node1&#45;&gt;Node2</title>
<g id="a_edge1_Node000001_Node000002"><a xlink:title=" ">
<path fill="none" stroke="#63b8ff" d="M170.67,-103.6C158.66,-94.11 143.53,-82.13 133.46,-74.17"/>
<polygon fill="#63b8ff" stroke="#63b8ff" points="168.72,-106.53 178.74,-109.98 173.06,-101.04 168.72,-106.53"/>
</a>
</g>
</g>
<!-- Node5 -->
<g id="Node000005" class="node">
<title>Node5</title>
<g id="a_Node000005"><a xlink:href="Player_8cpp." target="_top" xlink:title=" ">
<polygon fill="white" stroke="#666666" points="298.5,-74 214.5,-74 214.5,-55 298.5,-55 298.5,-74"/>
<text text-anchor="middle" x="256.5" y="-62" font-family="Helvetica,sans-Serif" font-size="10.00">src/Player.cpp</text>
</a>
</g>
</g>
<!-- Node1&#45;&gt;Node5 -->
<g id="edge4_Node000001_Node000005" class="edge">
<title>Node1&#45;&gt;Node5</title>
<g id="a_edge4_Node000001_Node000005"><a xlink:title=" ">
<path fill="none" stroke="#63b8ff" d="M208.33,-103.6C220.34,-94.11 235.47,-82.13 245.54,-74.17"/>
<polygon fill="#63b8ff" stroke="#63b8ff" points="205.94,-101.04 200.26,-109.98 210.28,-106.53 205.94,-101.04"/>
</a>
</g>
</g>
<!-- Node3 -->
<g id="Node000003" class="node">
<title>Node3</title>
<g id="a_Node000003"><a xlink:href="GameManager_8cpp." target="_top" xlink:title=" ">
<polygon fill="white" stroke="#666666" points="125,-19 0,-19 0,0 125,0 125,-19"/>
<text text-anchor="middle" x="62.5" y="-7" font-family="Helvetica,sans-Serif" font-size="10.00">src/GameManager.cpp</text>
</a>
</g>
</g>
<!-- Node2&#45;&gt;Node3 -->
<g id="edge2_Node000002_Node000003" class="edge">
<title>Node2&#45;&gt;Node3</title>
<g id="a_edge2_Node000002_Node000003"><a xlink:title=" ">
<path fill="none" stroke="#63b8ff" d="M105.32,-48.32C94.62,-38.87 81.24,-27.06 72.32,-19.17"/>
<polygon fill="#63b8ff" stroke="#63b8ff" points="103.05,-50.99 112.86,-54.98 107.68,-45.74 103.05,-50.99"/>
</a>
</g>
</g>
<!-- Node4 -->
<g id="Node000004" class="node">
<title>Node4</title>
<g id="a_Node000004"><a xlink:href="main_8cpp." target="_top" xlink:title=" ">
<polygon fill="white" stroke="#666666" points="222,-19 143,-19 143,0 222,0 222,-19"/>
<text text-anchor="middle" x="182.5" y="-7" font-family="Helvetica,sans-Serif" font-size="10.00">src/main.cpp</text>
</a>
</g>
</g>
<!-- Node2&#45;&gt;Node4 -->
<g id="edge3_Node000002_Node000004" class="edge">
<title>Node2&#45;&gt;Node4</title>
<g id="a_edge3_Node000002_Node000004"><a xlink:title=" ">
<path fill="none" stroke="#63b8ff" d="M139.68,-48.32C150.38,-38.87 163.76,-27.06 172.68,-19.17"/>
<polygon fill="#63b8ff" stroke="#63b8ff" points="137.32,-45.74 132.14,-54.98 141.95,-50.99 137.32,-45.74"/>
</a>
</g>
</g>
</g>
</svg>
